<?xml version="1.0" ?><svg height="24px" version="1.1" viewBox="0 0 24 24" width="24px" xmlns="http://www.w3.org/2000/svg" xmlns:sketch="http://www.bohemiancoding.com/sketch/ns" xmlns:xlink="http://www.w3.org/1999/xlink"><title/><desc/><defs/><g fill="none" fill-rule="evenodd" id="miu" stroke="none" stroke-width="1"><g id="Artboard-1" transform="translate(-827.000000, -443.000000)"><g id="slice" transform="translate(215.000000, 119.000000)"/><path d="M832,466 L832,445 L832.977778,445 C833.043235,445.640095 832.977778,466 832.977778,466 L832,466 Z M834.018052,446.333064 C835.089594,446.815742 836.496642,446.664562 838.339618,445.569703 C841.216847,443.860425 843.359639,443.800389 845.079528,444.539906 C845.438277,444.69416 845.687036,444.854576 845.826646,444.974598 L845.996826,445.1209 L845.996826,454.28872 L845.189229,453.594437 C845.12162,453.536315 844.956007,453.429516 844.693295,453.316555 C843.266586,452.7031 841.452291,452.736246 838.83901,454.28872 C837.030696,455.362987 835.326924,455.418266 834.067871,455.094309 L834.018052,446.333064 Z" fill="#000000" id="editor-flag-notification-glyph"/></g></g></svg>