<?xml version="1.0" ?><svg height="487.587" id="svg1422" width="297.975" xmlns="http://www.w3.org/2000/svg" xmlns:cc="http://creativecommons.org/ns#" xmlns:dc="http://purl.org/dc/elements/1.1/" xmlns:inkscape="http://www.inkscape.org/namespaces/inkscape" xmlns:rdf="http://www.w3.org/1999/02/22-rdf-syntax-ns#" xmlns:sodipodi="http://sodipodi.sourceforge.net/DTD/sodipodi-0.dtd" xmlns:svg="http://www.w3.org/2000/svg"><defs id="defs1424"><marker id="ArrowEnd" markerHeight="3" markerUnits="strokeWidth" markerWidth="4" orient="auto" refX="0" refY="5" viewBox="0 0 10 10"><path d="M 0 0 L 10 5 L 0 10 z" id="path1427"/></marker><marker id="ArrowStart" markerHeight="3" markerUnits="strokeWidth" markerWidth="4" orient="auto" refX="10" refY="5" viewBox="0 0 10 10"><path d="M 10 0 L 0 5 L 10 10 z" id="path1430"/></marker></defs><g id="g1432"><g id="g1434"><path d="M 0 448.039L 0 230.038L 0.0460052 230.03C 0.0460052 208.288 16.767 190.229 39.767 190.229L 258.267 190.229C 280.517 190.229 297.967 208.038 297.967 230.038L 297.967 448.039L 297.975 448.094C 298.017 471.288 280.267 487.583 258.517 487.583L 39.767 487.583L 39.767 487.587C 18.017 487.587 0 470.288 0 448.039z" id="path1436" style="stroke:none; fill:#000000"/><path d="M 41.174 231.902L 256.793 231.902L 256.793 446.271L 41.174 446.271L 41.174 231.902z" id="path1438" style="stroke:none; fill:#ffffff"/></g><g id="g1440"><path d="M 202.892 21.5064C 202.652 -7.0076 243.902 -7.32959 244.142 21.5064L 243.515 108.033L 265.705 80.8514C 281.017 64.0384 307.955 87.4764 291.329 106.476L 237.517 170.538C 229.017 179.038 217.967 178.988 209.517 170.538L 155.954 106.226C 139.329 87.2264 166.517 63.5384 181.579 80.6014L 203.519 108.033L 202.892 21.5064z" id="path1442" style="stroke:none; fill:#000000"/><path d="M 53.142 155.57C 52.902 184.085 94.152 184.408 94.392 155.57L 93.765 69.0444L 115.954 96.2264C 131.267 113.038 158.204 89.6014 141.579 70.6014L 87.767 6.53842C 79.267 -1.96158 68.217 -1.91058 59.767 6.53842L 6.205 70.8514C -10.421 89.8514 16.767 113.538 31.829 96.4764L 53.769 69.0444L 53.142 155.57z" id="path1444" style="stroke:none; fill:#000000"/></g><g id="g1446"><g id="g1448"><path d="M 246.572 354.695C 246.572 359.039 243.079 362.06 239.236 362.06C 239.236 362.06 191.017 362.06 190.954 362.06C 187.163 362.06 183.609 358.987 183.609 354.695L 183.609 302.226C 183.609 296.206 188.434 292.089 193.704 292.089C 193.656 292.089 236.454 292.089 236.454 292.089C 242.204 292.089 246.572 296.664 246.572 302.226L 246.572 354.695z" id="path1450" style="stroke:none; fill:#000000"/><g id="g1452"><path d="M 234.767 360.143L 216.395 360.143L 216.395 431.101C 216.395 443.69 234.767 443.69 234.767 431.101L 234.767 360.143z" id="path1454" style="stroke:none; fill:#000000"/><path d="M 213.602 360.143L 195.23 360.143L 195.23 431.101C 195.23 443.594 213.602 443.594 213.602 431.101L 213.602 360.143z" id="path1456" style="stroke:none; fill:#000000"/></g><g id="g1458"><path d="M 215.267 287.828C 222.882 287.828 229.056 281.654 229.056 274.039C 229.056 266.424 222.882 260.25 215.267 260.25C 207.652 260.25 201.478 266.424 201.478 274.039C 201.478 281.654 207.652 287.828 215.267 287.828z" id="path1460" style="stroke:none; fill:#000000"/><path d="M 215.267 274.039" id="path1462" style="stroke:none; fill:#000000"/></g></g><g id="g1464"><path d="M 180.572 354.695C 180.572 359.039 177.079 362.06 173.236 362.06C 173.236 362.06 125.017 362.06 124.954 362.06C 121.163 362.06 117.609 358.987 117.609 354.695L 117.609 302.226C 117.609 296.206 122.434 292.089 127.704 292.089C 127.656 292.089 170.454 292.089 170.454 292.089C 176.204 292.089 180.572 296.664 180.572 302.226L 180.572 354.695z" id="path1466" style="stroke:none; fill:#000000"/><g id="g1468"><path d="M 168.767 360.143L 150.395 360.143L 150.395 431.101C 150.395 443.69 168.767 443.69 168.767 431.101L 168.767 360.143z" id="path1470" style="stroke:none; fill:#000000"/><path d="M 147.602 360.143L 129.23 360.143L 129.23 431.101C 129.23 443.594 147.602 443.594 147.602 431.101L 147.602 360.143z" id="path1472" style="stroke:none; fill:#000000"/></g><g id="g1474"><path d="M 149.267 287.828C 156.882 287.828 163.056 281.654 163.056 274.039C 163.056 266.424 156.882 260.25 149.267 260.25C 141.652 260.25 135.478 266.424 135.478 274.039C 135.478 281.654 141.652 287.828 149.267 287.828z" id="path1476" style="stroke:none; fill:#000000"/><path d="M 149.267 274.039" id="path1478" style="stroke:none; fill:#000000"/></g></g><g id="g1480"><path d="M 114.572 354.695C 114.572 359.039 111.079 362.06 107.236 362.06C 107.236 362.06 59.017 362.06 58.9545 362.06C 55.1629 362.06 51.6095 358.987 51.6095 354.695L 51.6095 302.226C 51.6095 296.206 56.4338 292.089 61.7045 292.089C 61.6555 292.089 104.454 292.089 104.454 292.089C 110.204 292.089 114.572 296.664 114.572 302.226L 114.572 354.695z" id="path1482" style="stroke:none; fill:#000000"/><g id="g1484"><path d="M 102.767 360.143L 84.3945 360.143L 84.3945 431.101C 84.3945 443.69 102.767 443.69 102.767 431.101L 102.767 360.143z" id="path1486" style="stroke:none; fill:#000000"/><path d="M 81.6015 360.143L 63.2305 360.143L 63.2305 431.101C 63.2305 443.594 81.6015 443.594 81.6015 431.101L 81.6015 360.143z" id="path1488" style="stroke:none; fill:#000000"/></g><g id="g1490"><path d="M 83.267 287.828C 90.8821 287.828 97.0556 281.654 97.0556 274.039C 97.0556 266.424 90.8821 260.25 83.267 260.25C 75.6519 260.25 69.4784 266.424 69.4784 274.039C 69.4784 281.654 75.6519 287.828 83.267 287.828z" id="path1492" style="stroke:none; fill:#000000"/><path d="M 83.267 274.039" id="path1494" style="stroke:none; fill:#000000"/></g></g></g></g></svg>