<?xml version="1.0" ?><svg height="398.271" id="svg3987" width="511.443" xmlns="http://www.w3.org/2000/svg" xmlns:cc="http://creativecommons.org/ns#" xmlns:dc="http://purl.org/dc/elements/1.1/" xmlns:inkscape="http://www.inkscape.org/namespaces/inkscape" xmlns:rdf="http://www.w3.org/1999/02/22-rdf-syntax-ns#" xmlns:sodipodi="http://sodipodi.sourceforge.net/DTD/sodipodi-0.dtd" xmlns:svg="http://www.w3.org/2000/svg"><defs id="defs3989"><marker id="ArrowEnd" markerHeight="3" markerUnits="strokeWidth" markerWidth="4" orient="auto" refX="0" refY="5" viewBox="0 0 10 10"><path d="M 0 0 L 10 5 L 0 10 z" id="path3992"/></marker><marker id="ArrowStart" markerHeight="3" markerUnits="strokeWidth" markerWidth="4" orient="auto" refX="10" refY="5" viewBox="0 0 10 10"><path d="M 10 0 L 0 5 L 10 10 z" id="path3995"/></marker></defs><g id="g3997"><g id="g3999"><g id="g4001"><g id="g4003"><path d="M 216.402 67.777C 235.117 67.777 250.289 52.603 250.289 33.889C 250.289 15.172 235.117 0 216.402 0C 197.686 0 182.514 15.172 182.514 33.889C 182.514 52.603 197.686 67.777 216.402 67.777z" id="path4005" style="stroke:none; fill:#000000"/><path d="M 216.402 33.889" id="path4007" style="stroke:none; fill:#000000"/></g><path d="M 249.95 128.779L 249.95 107.426C 249.95 61.926 182.855 62.426 182.855 107.426L 182.855 194.535L 182.987 194.535L 119.594 257.926C 113.615 263.905 112.886 264.165 101.144 264.165C 101.134 264.175 62.386 264.165 62.386 264.165C 23.386 264.165 0 299.213 0 328.926C 0 358.639 23.386 396.2 65.845 396.2C 65.845 396.2 118.592 396.2 134.886 396.2C 151.181 396.2 170.934 389.971 187.229 374.635L 389.366 173.109C 393.68 169.275 396.076 168.078 403.505 168.078C 403.505 168.078 431.372 168.078 453.418 168.078C 477.443 168.078 511.443 140.85 511.443 101.6C 511.443 62.751 477.193 36.85 451.443 36.764L 372.636 36.764C 356.342 36.764 335.386 43.426 322.886 55.926L 249.948 128.779L 249.95 128.779z" id="path4009" style="stroke:none; fill:#000000"/></g><path d="M 397.725 272.375L 326.932 272.375C 307.432 272.375 306.682 302.375 326.932 302.375L 363.219 302.375L 294.207 371.387C 278.908 386.687 300.546 408.825 316.8 392.572L 384.785 324.399L 384.785 360.315C 384.682 379.815 414.932 380.565 414.978 360.315L 414.978 289.961C 414.978 279.461 407.932 272.375 397.725 272.375z" id="path4011" style="stroke:none; fill:#000000"/></g><path d="M 377.429 70.311L 448.334 70.311C 465.587 70.311 477.193 89.598 477.193 101.1C 477.193 112.602 468.959 134.069 447.872 134.069L 405.243 134.069C 387.193 134.069 379.193 136.6 368.802 146.991L 165.122 350.671C 156.886 358.926 146.432 362.193 133.013 362.193L 65.845 362.193C 48.592 362.193 33.386 347.596 33.386 328.426C 33.386 309.256 47.886 298.515 62.886 298.515L 108.967 298.515C 122.386 298.515 131.218 294.681 138.886 287.013L 346.004 79.896C 354.526 71.376 362.945 70.311 377.429 70.311z" id="path4013" style="stroke:none; fill:#ffffff"/></g></svg>