<?xml version="1.0" ?><svg height="365.145" id="svg1395" width="439.752" xmlns="http://www.w3.org/2000/svg" xmlns:cc="http://creativecommons.org/ns#" xmlns:dc="http://purl.org/dc/elements/1.1/" xmlns:inkscape="http://www.inkscape.org/namespaces/inkscape" xmlns:rdf="http://www.w3.org/1999/02/22-rdf-syntax-ns#" xmlns:sodipodi="http://sodipodi.sourceforge.net/DTD/sodipodi-0.dtd" xmlns:svg="http://www.w3.org/2000/svg"><defs id="defs1397"><marker id="ArrowEnd" markerHeight="3" markerUnits="strokeWidth" markerWidth="4" orient="auto" refX="0" refY="5" viewBox="0 0 10 10"><path d="M 0 0 L 10 5 L 0 10 z" id="path1400"/></marker><marker id="ArrowStart" markerHeight="3" markerUnits="strokeWidth" markerWidth="4" orient="auto" refX="10" refY="5" viewBox="0 0 10 10"><path d="M 10 0 L 0 5 L 10 10 z" id="path1403"/></marker></defs><g id="g1405"><path d="M 0 323.974L 80.05 323.974L 80.05 242.499L 159.584 242.499L 159.584 160.474L 240.373 160.474L 240.373 79.974L 320.614 79.974L 320.614 0L 439.752 0L 439.752 40.804L 360.55 40.804L 360.55 121.082L 280.218 121.082L 280.218 202.49L 200.05 202.49L 200.05 283.474L 119.55 283.474L 119.55 365.145L 0 365.145L 0 323.974z" id="path1407" style="stroke:none; fill:#000000"/><path d="M 358.843 237.888L 288.05 237.888C 268.55 237.888 267.8 267.888 288.05 267.888L 324.337 267.888L 255.325 336.9C 240.026 352.2 261.664 374.338 277.918 358.085L 345.903 289.912L 345.903 325.828C 345.8 345.328 376.05 346.078 376.096 325.828L 376.096 255.474C 376.096 244.974 369.05 237.888 358.843 237.888z" id="path1409" style="stroke:none; fill:#000000"/></g></svg>